<?xml version="1.0" standalone="no"?>
<!DOCTYPE svg PUBLIC "-//W3C//DTD SVG 20010904//EN"
 "http://www.w3.org/TR/2001/REC-SVG-20010904/DTD/svg10.dtd">
<svg version="1.0" xmlns="http://www.w3.org/2000/svg"
 width="100.000000pt" height="100.000000pt" viewBox="0 0 100.000000 100.000000"
 preserveAspectRatio="xMidYMid meet">
<metadata>
Created by potrace 1.14, written by Peter Selinger 2001-2017
</metadata>
<g transform="translate(0.000000,100.000000) scale(0.100000,-0.100000)"
fill="#000000" stroke="none">
<path d="M218 831 c-94 -31 -158 -120 -157 -221 0 -201 260 -308 407 -167 33
32 43 27 17 -7 -22 -29 -19 -48 8 -44 23 3 33 21 136 238 l50 105 49 -105
c116 -247 112 -240 137 -240 23 0 24 1 10 34 -8 19 -41 91 -74 160 -33 70 -72
153 -87 186 -15 33 -30 60 -35 60 -4 0 -28 -44 -54 -97 -25 -54 -58 -125 -74
-158 l-29 -60 5 43 c3 23 2 42 -3 43 -5 0 -49 1 -97 2 -87 2 -88 2 -85 -22 3
-23 7 -24 68 -25 36 -1 64 -5 64 -9 -28 -150 -279 -159 -348 -12 -49 103 9
222 121 250 74 19 137 4 201 -46 21 -16 26 -17 39 -3 14 13 13 17 -3 36 -48
52 -189 84 -266 59z"/>
<path d="M22 358 c-9 -4 201 -7 467 -7 266 -1 482 2 478 5 -8 8 -924 11 -945
2z"/>
<path d="M19 269 c0 -24 -1 -59 -2 -77 -1 -17 3 -32 8 -32 7 0 10 28 10 70 -1
76 -15 110 -16 39z"/>
<path d="M232 302 c-14 -4 -17 -142 -4 -142 5 0 8 15 8 33 -1 29 2 33 34 38
l35 6 -35 4 c-47 5 -50 41 -5 50 17 4 28 8 25 9 -12 4 -47 6 -58 2z"/>
<path d="M366 303 c-24 -6 -55 -42 -56 -65 -1 -55 59 -101 105 -80 58 27 67
93 18 132 -26 20 -33 22 -67 13z m68 -35 c21 -29 20 -57 -1 -80 -34 -38 -103
-11 -103 40 0 57 73 85 104 40z"/>
<path d="M492 298 c-14 -5 -13 -7 5 -7 19 -1 21 -7 21 -53 0 -70 1 -78 10 -78
4 0 6 27 6 61 -1 43 3 62 12 66 8 3 14 8 14 12 0 8 -46 8 -68 -1z"/>
<path d="M586 301 c-9 -16 -2 -141 8 -142 6 0 21 -2 33 -3 12 -1 28 1 35 6 8
5 -1 8 -24 8 -36 0 -38 2 -38 31 0 28 3 31 24 27 14 -3 31 -1 38 3 9 6 3 9
-17 10 -16 1 -33 1 -37 0 -5 0 -8 10 -8 24 0 22 4 25 37 25 20 0 33 3 30 6 -8
9 -77 12 -81 5z"/>
<path d="M717 287 c-60 -47 -21 -141 55 -132 30 4 76 35 51 35 -7 0 -15 -4
-18 -10 -11 -18 -64 -11 -86 11 -24 24 -20 65 8 87 20 14 69 16 78 2 3 -5 12
-10 18 -10 21 1 -35 40 -57 40 -11 0 -34 -10 -49 -23z"/>
<path d="M860 237 c0 -45 4 -77 10 -77 6 0 9 14 8 32 -3 30 -1 32 35 36 l37 3
0 -42 c0 -23 3 -39 7 -35 10 10 11 146 1 146 -4 0 -8 -13 -8 -29 0 -26 -3 -28
-37 -27 -33 1 -37 4 -38 29 -1 15 -5 30 -8 34 -4 3 -7 -28 -7 -70z"/>
<path d="M70 231 c0 -75 14 -92 16 -20 1 21 2 42 3 45 0 3 19 -15 41 -41 22
-25 43 -45 47 -45 11 0 12 130 1 130 -4 0 -8 -24 -8 -52 l-1 -53 -49 55 -50
55 0 -74z"/>
</g>
</svg>
